<mxfile host="app.diagrams.net" modified="2024-02-22T08:19:18.897Z" agent="Mozilla/5.0 (Macintosh; Intel Mac OS X 10_15_7) AppleWebKit/537.36 (KHTML, like Gecko) Chrome/121.0.0.0 Safari/537.36" etag="X01GiTpRlpHh9S_u8XCi" version="23.1.2" type="github">
  <diagram name="Page-1" id="RecCrTtKWapEMn3uTZwf">
    <mxGraphModel dx="1306" dy="727" grid="1" gridSize="10" guides="1" tooltips="1" connect="1" arrows="1" fold="1" page="1" pageScale="1" pageWidth="827" pageHeight="1169" math="0" shadow="0">
      <root>
        <mxCell id="0" />
        <mxCell id="1" parent="0" />
        <mxCell id="M43baEQbHzXB9ZtHsP_C-1" value="&lt;ol&gt;&lt;li&gt;Notes taking app&lt;/li&gt;&lt;li&gt;Multi device sync&lt;/li&gt;&lt;li&gt;All CRUD operations&lt;br&gt;4. Offline storage&lt;/li&gt;&lt;/ol&gt;" style="text;html=1;strokeColor=none;fillColor=none;align=center;verticalAlign=middle;whiteSpace=wrap;rounded=0;" vertex="1" parent="1">
          <mxGeometry x="50" y="10" width="180" height="110" as="geometry" />
        </mxCell>
        <mxCell id="M43baEQbHzXB9ZtHsP_C-2" value="&lt;div style=&quot;text-align: left;&quot;&gt;&lt;span style=&quot;background-color: initial;&quot;&gt;1. Notes - ID, data - String, Date created,&amp;nbsp;&lt;/span&gt;&lt;/div&gt;&lt;div style=&quot;text-align: left;&quot;&gt;&lt;span style=&quot;background-color: initial;&quot;&gt;2. operations - Read(username ) : List &amp;lt;Notes&amp;gt;&lt;br&gt;Create(Username, Data: String, current timestamp)&lt;br&gt;&lt;br&gt;&lt;/span&gt;&lt;/div&gt;" style="text;html=1;strokeColor=none;fillColor=none;align=center;verticalAlign=middle;whiteSpace=wrap;rounded=0;" vertex="1" parent="1">
          <mxGeometry x="90" y="130" width="190" height="110" as="geometry" />
        </mxCell>
        <mxCell id="M43baEQbHzXB9ZtHsP_C-3" value="" style="whiteSpace=wrap;html=1;aspect=fixed;" vertex="1" parent="1">
          <mxGeometry x="80" y="330" width="290" height="290" as="geometry" />
        </mxCell>
        <mxCell id="M43baEQbHzXB9ZtHsP_C-5" value="" style="rounded=0;whiteSpace=wrap;html=1;" vertex="1" parent="1">
          <mxGeometry x="120" y="350" width="120" height="60" as="geometry" />
        </mxCell>
        <mxCell id="M43baEQbHzXB9ZtHsP_C-6" value="Repository" style="text;html=1;strokeColor=none;fillColor=none;align=center;verticalAlign=middle;whiteSpace=wrap;rounded=0;" vertex="1" parent="1">
          <mxGeometry x="150" y="365" width="60" height="30" as="geometry" />
        </mxCell>
        <mxCell id="M43baEQbHzXB9ZtHsP_C-7" value="" style="rounded=0;whiteSpace=wrap;html=1;" vertex="1" parent="1">
          <mxGeometry x="120" y="470" width="120" height="60" as="geometry" />
        </mxCell>
        <mxCell id="M43baEQbHzXB9ZtHsP_C-8" value="API Service" style="text;html=1;strokeColor=none;fillColor=none;align=center;verticalAlign=middle;whiteSpace=wrap;rounded=0;" vertex="1" parent="1">
          <mxGeometry x="150" y="485" width="60" height="30" as="geometry" />
        </mxCell>
        <mxCell id="M43baEQbHzXB9ZtHsP_C-11" value="" style="shape=cylinder3;whiteSpace=wrap;html=1;boundedLbl=1;backgroundOutline=1;size=15;" vertex="1" parent="1">
          <mxGeometry x="290" y="430" width="60" height="80" as="geometry" />
        </mxCell>
        <mxCell id="M43baEQbHzXB9ZtHsP_C-12" value="Persitent storage" style="text;html=1;strokeColor=none;fillColor=none;align=center;verticalAlign=middle;whiteSpace=wrap;rounded=0;" vertex="1" parent="1">
          <mxGeometry x="290" y="475" width="60" height="30" as="geometry" />
        </mxCell>
        <mxCell id="M43baEQbHzXB9ZtHsP_C-13" value="" style="endArrow=classic;startArrow=classic;html=1;rounded=0;exitX=0.5;exitY=0;exitDx=0;exitDy=0;" edge="1" parent="1" source="M43baEQbHzXB9ZtHsP_C-7">
          <mxGeometry width="50" height="50" relative="1" as="geometry">
            <mxPoint x="130" y="460" as="sourcePoint" />
            <mxPoint x="180" y="410" as="targetPoint" />
          </mxGeometry>
        </mxCell>
        <mxCell id="M43baEQbHzXB9ZtHsP_C-14" value="" style="endArrow=classic;startArrow=classic;html=1;rounded=0;exitX=0;exitY=0;exitDx=0;exitDy=0;" edge="1" parent="1" source="M43baEQbHzXB9ZtHsP_C-12">
          <mxGeometry width="50" height="50" relative="1" as="geometry">
            <mxPoint x="190" y="480" as="sourcePoint" />
            <mxPoint x="180" y="410" as="targetPoint" />
          </mxGeometry>
        </mxCell>
        <mxCell id="M43baEQbHzXB9ZtHsP_C-15" value="" style="whiteSpace=wrap;html=1;aspect=fixed;" vertex="1" parent="1">
          <mxGeometry x="420" y="330" width="290" height="290" as="geometry" />
        </mxCell>
        <mxCell id="M43baEQbHzXB9ZtHsP_C-23" style="edgeStyle=orthogonalEdgeStyle;rounded=0;orthogonalLoop=1;jettySize=auto;html=1;entryX=1;entryY=0.5;entryDx=0;entryDy=0;" edge="1" parent="1" source="M43baEQbHzXB9ZtHsP_C-16" target="M43baEQbHzXB9ZtHsP_C-5">
          <mxGeometry relative="1" as="geometry" />
        </mxCell>
        <mxCell id="M43baEQbHzXB9ZtHsP_C-16" value="" style="rounded=0;whiteSpace=wrap;html=1;" vertex="1" parent="1">
          <mxGeometry x="460" y="350" width="120" height="60" as="geometry" />
        </mxCell>
        <mxCell id="M43baEQbHzXB9ZtHsP_C-17" value="Usecases" style="text;html=1;strokeColor=none;fillColor=none;align=center;verticalAlign=middle;whiteSpace=wrap;rounded=0;" vertex="1" parent="1">
          <mxGeometry x="490" y="365" width="60" height="30" as="geometry" />
        </mxCell>
        <mxCell id="M43baEQbHzXB9ZtHsP_C-18" value="Data" style="text;html=1;strokeColor=none;fillColor=none;align=center;verticalAlign=middle;whiteSpace=wrap;rounded=0;" vertex="1" parent="1">
          <mxGeometry x="180" y="280" width="60" height="30" as="geometry" />
        </mxCell>
        <mxCell id="M43baEQbHzXB9ZtHsP_C-19" value="Domain" style="text;html=1;strokeColor=none;fillColor=none;align=center;verticalAlign=middle;whiteSpace=wrap;rounded=0;" vertex="1" parent="1">
          <mxGeometry x="520" y="280" width="60" height="30" as="geometry" />
        </mxCell>
        <mxCell id="M43baEQbHzXB9ZtHsP_C-20" value="" style="rounded=0;whiteSpace=wrap;html=1;" vertex="1" parent="1">
          <mxGeometry x="460" y="475" width="120" height="60" as="geometry" />
        </mxCell>
        <mxCell id="M43baEQbHzXB9ZtHsP_C-21" value="DomainDataModel" style="text;html=1;strokeColor=none;fillColor=none;align=center;verticalAlign=middle;whiteSpace=wrap;rounded=0;" vertex="1" parent="1">
          <mxGeometry x="490" y="490" width="60" height="30" as="geometry" />
        </mxCell>
        <mxCell id="M43baEQbHzXB9ZtHsP_C-24" value="RepositoryImpl by DI graph" style="text;html=1;strokeColor=none;fillColor=none;align=center;verticalAlign=middle;whiteSpace=wrap;rounded=0;" vertex="1" parent="1">
          <mxGeometry x="340" y="350" width="60" height="30" as="geometry" />
        </mxCell>
        <mxCell id="M43baEQbHzXB9ZtHsP_C-28" value="UI state" style="text;html=1;strokeColor=none;fillColor=none;align=center;verticalAlign=middle;whiteSpace=wrap;rounded=0;" vertex="1" parent="1">
          <mxGeometry x="990" y="175" width="60" height="30" as="geometry" />
        </mxCell>
        <mxCell id="M43baEQbHzXB9ZtHsP_C-33" value="" style="group" vertex="1" connectable="0" parent="1">
          <mxGeometry x="790" y="325" width="280" height="300" as="geometry" />
        </mxCell>
        <mxCell id="M43baEQbHzXB9ZtHsP_C-31" value="" style="rounded=0;whiteSpace=wrap;html=1;container=1;" vertex="1" parent="M43baEQbHzXB9ZtHsP_C-33">
          <mxGeometry width="280" height="300" as="geometry" />
        </mxCell>
        <mxCell id="M43baEQbHzXB9ZtHsP_C-34" value="" style="endArrow=classic;startArrow=classic;html=1;rounded=0;" edge="1" parent="M43baEQbHzXB9ZtHsP_C-31">
          <mxGeometry width="50" height="50" relative="1" as="geometry">
            <mxPoint x="84" y="140" as="sourcePoint" />
            <mxPoint x="154" y="90" as="targetPoint" />
          </mxGeometry>
        </mxCell>
        <mxCell id="M43baEQbHzXB9ZtHsP_C-25" value="" style="rounded=0;whiteSpace=wrap;html=1;" vertex="1" parent="M43baEQbHzXB9ZtHsP_C-31">
          <mxGeometry x="40" y="30" width="120" height="60" as="geometry" />
        </mxCell>
        <mxCell id="M43baEQbHzXB9ZtHsP_C-27" value="" style="rounded=0;whiteSpace=wrap;html=1;" vertex="1" parent="M43baEQbHzXB9ZtHsP_C-31">
          <mxGeometry x="180" y="55" width="70" height="50" as="geometry" />
        </mxCell>
        <mxCell id="M43baEQbHzXB9ZtHsP_C-32" value="Ui States" style="text;html=1;strokeColor=none;fillColor=none;align=center;verticalAlign=middle;whiteSpace=wrap;rounded=0;" vertex="1" parent="M43baEQbHzXB9ZtHsP_C-31">
          <mxGeometry x="200" y="60" width="70" height="30" as="geometry" />
        </mxCell>
        <mxCell id="M43baEQbHzXB9ZtHsP_C-26" value="UiComponents" style="text;html=1;strokeColor=none;fillColor=none;align=center;verticalAlign=middle;whiteSpace=wrap;rounded=0;" vertex="1" parent="M43baEQbHzXB9ZtHsP_C-33">
          <mxGeometry x="50" y="45" width="84" height="30" as="geometry" />
        </mxCell>
        <mxCell id="M43baEQbHzXB9ZtHsP_C-29" value="" style="rounded=0;whiteSpace=wrap;html=1;" vertex="1" parent="M43baEQbHzXB9ZtHsP_C-33">
          <mxGeometry x="70" y="200" width="168" height="60" as="geometry" />
        </mxCell>
        <mxCell id="M43baEQbHzXB9ZtHsP_C-30" value="ViewModel" style="text;html=1;strokeColor=none;fillColor=none;align=center;verticalAlign=middle;whiteSpace=wrap;rounded=0;" vertex="1" parent="M43baEQbHzXB9ZtHsP_C-33">
          <mxGeometry x="125.99999999999999" y="215" width="70" height="30" as="geometry" />
        </mxCell>
      </root>
    </mxGraphModel>
  </diagram>
</mxfile>
